<svg width="44" height="40" viewBox="0 0 44 40" fill="none" xmlns="http://www.w3.org/2000/svg">
<path d="M26.4444 10.8889V6.44444C26.4444 5.2657 25.9762 4.13524 25.1427 3.30175C24.3092 2.46825 23.1787 2 22 2H6.44444C5.2657 2 4.13524 2.46825 3.30175 3.30175C2.46825 4.13524 2 5.2657 2 6.44444V33.1111C2 34.2899 2.46825 35.4203 3.30175 36.2538C4.13524 37.0873 5.2657 37.5556 6.44444 37.5556H22C23.1787 37.5556 24.3092 37.0873 25.1427 36.2538C25.9762 35.4203 26.4444 34.2899 26.4444 33.1111V28.6667M15.3333 19.7778H42M42 19.7778L35.3333 13.1111M42 19.7778L35.3333 26.4444" stroke="currentColor" stroke-width="4" stroke-linecap="round" stroke-linejoin="round"/>
</svg>
