<svg width="44" height="45" viewBox="0 0 44 45" fill="none" xmlns="http://www.w3.org/2000/svg">
<path class="path" d="M9.04 38.1014C9.59002 36.2707 10.7155 34.6662 12.2494 33.5257C13.7834 32.3853 15.6441 31.7697 17.5556 31.7702H26.4444C28.3584 31.7696 30.2214 32.3867 31.7564 33.5298C33.2915 34.6728 34.4166 36.2809 34.9644 38.1147M2 22.8813C2 25.5078 2.51732 28.1085 3.52241 30.535C4.5275 32.9615 6.00069 35.1663 7.85786 37.0235C9.71504 38.8807 11.9198 40.3538 14.3463 41.3589C16.7728 42.364 19.3736 42.8813 22 42.8813C24.6264 42.8813 27.2272 42.364 29.6537 41.3589C32.0802 40.3538 34.285 38.8807 36.1421 37.0235C37.9993 35.1663 39.4725 32.9615 40.4776 30.535C41.4827 28.1085 42 25.5078 42 22.8813C42 20.2549 41.4827 17.6542 40.4776 15.2277C39.4725 12.8012 37.9993 10.5964 36.1421 8.73921C34.285 6.88204 32.0802 5.40885 29.6537 4.40376C27.2272 3.39866 24.6264 2.88135 22 2.88135C19.3736 2.88135 16.7728 3.39866 14.3463 4.40376C11.9198 5.40885 9.71504 6.88204 7.85786 8.73921C6.00069 10.5964 4.5275 12.8012 3.52241 15.2277C2.51732 17.6542 2 20.2549 2 22.8813ZM15.3333 18.4369C15.3333 20.205 16.0357 21.9007 17.286 23.151C18.5362 24.4012 20.2319 25.1036 22 25.1036C23.7681 25.1036 25.4638 24.4012 26.714 23.151C27.9643 21.9007 28.6667 20.205 28.6667 18.4369C28.6667 16.6688 27.9643 14.9731 26.714 13.7229C25.4638 12.4726 23.7681 11.7702 22 11.7702C20.2319 11.7702 18.5362 12.4726 17.286 13.7229C16.0357 14.9731 15.3333 16.6688 15.3333 18.4369Z" stroke="currentColor" stroke-width="4" stroke-linecap="round" stroke-linejoin="round"/>
</svg>
